<svg xmlns="http://www.w3.org/2000/svg" viewBox="0 0 609.44 864.28"><defs><style>.cls-1{fill:#3739AC;}</style></defs><title>Asset 1</title><g id="Layer_2" data-name="Layer 2"><g id="Layer_1-2" data-name="Layer 1"><path class="cls-1" d="M62.07,864.28c-1.06-2-1-4.1-1-6.26Q61,638,61,418c0-3.86,1.34-6,4.55-7.93Q133.1,369,200.6,327.65c1.75-1.07,3.46-3.16,5.82-1.89,2.6,1.41,1.68,4.14,1.68,6.35q0,109,0,218c0,7.54,0,7.55,7.41,7.55q93.75,0,187.49.12c5,0,5.92-1.45,5.91-6.13q-.22-109.24-.1-218.49a42,42,0,0,1,.07-4.49c.32-3.19,2-4,4.84-2.55.88.45,1.73,1,2.58,1.5Q483.64,368.77,551,409.83c3.79,2.3,5.09,4.82,5.09,9.18q-.17,219-.09,438c0,2.48.1,4.95-.92,7.3h-145c-1.62-2.19-1.23-4.74-1.23-7.21q0-75.93,0-151.86c0-7.19-.12-7.32-7.19-7.32H215.31c-7.09,0-7.18.11-7.18,7.28V857.53c0,2.31.22,4.64-1.06,6.75Z"/><path class="cls-1" d="M.07,329.67v-5.2Q.07,253.24,0,182c0-3.41,1-5.3,4-7.06Q152.84,88.12,301.51,1c3.17-1.85,5.09-.86,7.57.59Q443.69,80.33,578.31,159c9.05,5.29,18,10.7,27.18,15.79,2.83,1.57,4,3.27,4,6.59q-.18,71.75-.09,143.47c0,5.19,0,5.19-4.74,2.44Q456.44,240.71,308.32,154c-3.17-1.86-5.28-1.38-8.09.26Q154.34,239.67,8.37,325C5.94,326.39,3.47,327.75.07,329.67Z"/></g></g></svg>